<?xml version="1.0" encoding="utf-8"?>
<svg viewBox="0 0 950 950" xmlns="http://www.w3.org/2000/svg">
  <g id="Capa_2" transform="matrix(1, 0, 0, 1, -489.8, -74.91075)">
    <path id="XMLID_106_" fill="#D4F4F2" d="M495,250.4l48.3,400.4c0,0,151.2,367.4,149.7,362.3c-1.5-5,0-447,0-447l208.7-123.8 l12.3-1.4l420.2,84.9l80.5-371.6L932.3,78.8L908.5,78L495,235.8V250.4z"/>
  </g>
  <g id="Capa_3" transform="matrix(1, 0, 0, 1, -489.8, -74.91075)">
    <path id="XMLID_28_" fill="none" stroke="#000000" stroke-width="4.252" stroke-miterlimit="10" d="M493.8,241 c0,0,52.6,405.7,49.6,409.8S655.9,883.1,693,1013.2c0,0,7.2-432.5,0-447C693,566.2,571.2,330.8,493.8,241z"/>
    <path id="XMLID_29_" fill="none" stroke="#000000" stroke-width="4" stroke-miterlimit="10" d="M494,240.9l14.4-10.3 c0,0,398.4-141.4,398.4-146.6c0-5.2,25.4-7.4,25.6-5.3c0.2,2.1-18.4,362.2-18.4,362.2H904L693,566.2"/>
    <path id="XMLID_30_" fill="none" stroke="#000000" stroke-width="4" stroke-miterlimit="10" d="M913.9,441 c3.1-6.5,420.2,84.9,420.2,84.9l80.5-371.6c0,0-406.1-55-482.3-75.5"/>
    <path id="XMLID_32_" fill="none" stroke="#000000" stroke-width="4" stroke-miterlimit="10" d="M904,441c0,0,8-347.7,2.8-356.9"/>
    <path id="XMLID_35_" fill="none" stroke="#000000" stroke-width="3.8674" stroke-miterlimit="10" d="M596.4,399.4 c0.9-19.5,4.2-39,9.4-57.8c5.3-19.3,12.6-38,21.6-55.8c8.9-17.7,19.5-34.7,31.7-50.4c11.7-15.2,24.9-29.2,39.6-41.5 c13.8-11.6,29-21.7,45.5-29.2c2-0.9,3.9-1.8,5.9-2.6"/>
    <path id="XMLID_34_" fill="none" stroke="#000000" stroke-width="3.8674" stroke-miterlimit="10" d="M750,162.1 c33-15.1,73-17.1,105,5.9c52,37,56,101,45,159c-14,69-46,127-100,172c-33,27-73,46-116.5,39.8"/>
    <path id="XMLID_31_" fill="none" stroke="#000000" stroke-width="3.8674" stroke-miterlimit="10" d="M763.8,326.9 c-8.1,3.8-14.9,10.3-19.1,18.2c-2.2,4.1-3.7,8.8-3.5,13.4s2.3,9.4,6.2,12.1c5.3,3.6,12.5,2.7,18.6,0.6c7.8-2.7,15.3-7.5,18.8-14.9 c4.4-9.3,1-21.6-7.7-27.2c-8.6-5.6-21.2-3.8-27.9,4"/>
    <path id="XMLID_33_" fill="none" stroke="#000000" stroke-width="3.8674" stroke-miterlimit="10" d="M1138.5,142.8 c5.1,2.6,11.2,3.2,16.7,1.6c13.2,2.7,26.4,5.4,39.6,7.9c42.7,7.9,85.8,13.3,129.1,16.1"/>
    <path id="XMLID_36_" fill="none" stroke="#000000" stroke-width="3.8674" stroke-miterlimit="10" d="M1168.2,164.7 c13.6,0.8,27.2,1.7,40.8,2.5c4.9,5,12.9,4.7,19.9,4.1c23.4,4.4,47.3,6.5,71.1,6.3"/>
    <path id="XMLID_37_" fill="none" stroke="#000000" stroke-width="3.8674" stroke-miterlimit="10" d="M1185.3,184.8 c5.4,0.3,10.9-1,15.7-3.6c3,7.1,13.2,9.8,19.4,5.2c5.5,3.3,12.4,4.5,18.7,3c0,2.2,0,4.4,0,6.6c13.4,3.9,27.6,4.7,41.3,2.5"/>
    <path id="XMLID_38_" fill="none" stroke="#000000" stroke-width="3.8674" stroke-miterlimit="10" d="M1146.6,207.4 c5.7,2.4,12.6,2.1,18.1-0.7c-1.2,1.6-0.3,4.1,1.4,5.2c1.7,1.1,3.8,1.2,5.8,1.3c12.2,0.5,24.3,1,36.5,1.6 c29.6,7.4,60.1,11.3,90.6,11.6"/>
    <path id="XMLID_39_" fill="none" stroke="#000000" stroke-width="3.8674" stroke-miterlimit="10" d="M1139,222.4 c0.4,4.2,4,8,8.2,8.6c4.2,0.6,8.7-1.9,10.3-5.9c8.1,3.4,17,4.4,25.7,5.3c38.6,4.1,77.2,8.2,115.8,12.4"/>
    <path id="XMLID_40_" fill="none" stroke="#000000" stroke-width="3.8674" stroke-miterlimit="10" d="M1203.1,266 c4.3-3.5,8.6-7.1,12.9-10.6c0.5,2.7,1,5.5,1.4,8.2c-4.1-2.7-8.2-5.3-12.4-8c6.4,1.4,13.2,1.4,19.6,0c-7,1.7-13.5,5.2-18.9,10"/>
    <path id="XMLID_41_" fill="none" stroke="#000000" stroke-width="3.8674" stroke-miterlimit="10" d="M1203.2,272.1 c-0.2,3.5,4,5.6,7.5,5.2s6.6-2.2,10-2.7c3.4-0.5,7.7,1.3,7.9,4.7"/>
    <path id="XMLID_42_" fill="none" stroke="#000000" stroke-width="3.8674" stroke-miterlimit="10" d="M1124.6,275.7 c-1.7,3.7,3.9,6.9,7.7,5.6s6.8-4.6,10.8-5.6c4.3-1.1,8.7,0.9,12.8,2.5c14.4,5.7,29.8,7.8,45.1,10c35.6,4.9,71.1,9.9,106.7,14.8"/>
    <path id="XMLID_43_" fill="none" stroke="#000000" stroke-width="3.8674" stroke-miterlimit="10" d="M1177.6,302.9 c-0.8,4.8,4.8,8.6,9.6,8c4.8-0.6,8.6-4.1,12.1-7.5c1.4,7,11.2,10.7,16.8,6.3"/>
    <path id="XMLID_44_" fill="none" stroke="#000000" stroke-width="3.8674" stroke-miterlimit="10" d="M1237.9,318.5 c0.2,1,0.3,2.1,0.5,3.1c4.7-1.4,9.8-1.1,14.3,0.6"/>
    <path id="XMLID_45_" fill="none" stroke="#000000" stroke-width="3.8674" stroke-miterlimit="10" d="M1170.9,316 c7.1-0.4,14.1,1.1,21.1,2.7c10.6,2.3,21.2,4.6,31.7,6.9"/>
    <path id="XMLID_46_" fill="none" stroke="#000000" stroke-width="3.8674" stroke-miterlimit="10" d="M1199.9,341.2 c3.3-2.8,6.6-5.6,9.9-8.3c-0.1,4.1-0.2,8.3-0.3,12.4c-0.6-6.2-7.4-11-13.5-9.5c5.4-1,11.1-0.1,15.9,2.6c-4.3,1-8.3,3.4-11.3,6.8"/>
    <path id="XMLID_47_" fill="none" stroke="#000000" stroke-width="3.8674" stroke-miterlimit="10" d="M1153,350 c5.9,3.7,14.1,3,19.3-1.5c1,3.9,5,6.4,9,7.1c4,0.7,8-0.1,12.1-0.6c13.7-1.7,27.8-0.1,40.7,4.6"/>
    <path id="XMLID_48_" fill="none" stroke="#000000" stroke-width="3.8674" stroke-miterlimit="10" d="M1149.4,367.6 c8,0.1,15.9,0.1,23.9,0.2c7.4,0.1,14.9,0.1,22.2,1.7c12.2,2.5,23.9,9.1,36.3,8.1c10.2,3.9,21.2,5.8,32.1,5.7"/>
    <path id="XMLID_49_" fill="none" stroke="#000000" stroke-width="3.8674" stroke-miterlimit="10" d="M1141.9,381.6 c-0.9-1.2,0.9-3,2.4-2.5c1.5,0.5,2.2,2.1,2.5,3.6c0.3,1.5,0.5,3.1,1.4,4.3c1.1,1.4,3,1.9,4.7,2.2c16,3.1,32.5,3.5,48.6,1.2"/>
    <path id="XMLID_50_" fill="none" stroke="#000000" stroke-width="3.8674" stroke-miterlimit="10" d="M1222.3,395 c3.4-2.1,8.6,0.7,8.7,4.6c6.5,0.1,13,0.3,19.5,0.4"/>
    <path id="XMLID_51_" fill="none" stroke="#000000" stroke-width="3.8674" stroke-miterlimit="10" d="M1262.8,407.3 c3,2,6.8,2.7,10.3,1.9"/>
    <path id="XMLID_52_" fill="none" stroke="#000000" stroke-width="3.8674" stroke-miterlimit="10" d="M1119.3,394.2 c4.7,2.7,10.3,3.3,15.7,3.8c11.2,1.1,22.3,2.3,33.5,3.4c0.3,1,0.7,2.1,1,3.1c8.1,1.3,16.1,2.6,24.2,3.8"/>
    <line id="XMLID_53_" fill="none" stroke="#000000" stroke-width="4" stroke-miterlimit="10" x1="1203" y1="409" x2="1210" y2="409"/>
    <path id="XMLID_54_" fill="none" stroke="#000000" stroke-width="3.8674" stroke-miterlimit="10" d="M1203,409.3 c5.2,0.7,10.3,1.4,15.5,2.1"/>
    <line id="XMLID_55_" fill="none" stroke="#000000" stroke-width="4" stroke-miterlimit="10" x1="1220" y1="412" x2="1224" y2="412"/>
    <path id="XMLID_56_" fill="none" stroke="#000000" stroke-width="3.8674" stroke-miterlimit="10" d="M1219.5,412.4 c4.1,0.7,8.3,1.4,12.4,2.1"/>
    <path id="XMLID_57_" fill="none" stroke="#000000" stroke-width="3.8674" stroke-miterlimit="10" d="M1238,415.7 c1.7,0.3,3.4,0.7,5.2,1"/>
    <path id="XMLID_1_" fill="none" stroke="#000000" stroke-width="3.8674" stroke-miterlimit="10" d="M1251.5,417.4 c12,1.9,24,3.8,36.1,5.6"/>
    <path id="XMLID_2_" fill="none" stroke="#000000" stroke-width="3.8674" stroke-miterlimit="10" d="M1093.5,404.4 c6.6,5.4,16.8,6,24,1.3c0.2,3.8,3.1,7,6.5,8.8s7.2,2.3,11,2.8c13.4,1.8,26.8,3.6,40.2,5.4"/>
    <path id="XMLID_3_" fill="none" stroke="#000000" stroke-width="3.8674" stroke-miterlimit="10" d="M1188.6,422.2 c17.2,3.6,34.4,7.1,51.5,10.7"/>
    <path id="XMLID_4_" fill="none" stroke="#000000" stroke-width="3.8674" stroke-miterlimit="10" d="M1253.7,433.3 c13.4,1.6,26.8,3.2,40.2,4.8"/>
    <path id="XMLID_5_" fill="none" stroke="#000000" stroke-width="3.8674" stroke-miterlimit="10" d="M1146,447.5 c0.2,3.5,4.3,5.6,7.8,5.1c3.4-0.5,6.3-2.9,9-5.1c2,5.3,10.4,6.5,13.9,2c0.2,1.7,0.4,3.3,0.7,5c2.2,0.4,4.6-0.1,6.5-1.4 c3.4,3.3,9.3,3.8,13.2,1c2.7,3.1,8,3.3,10.9,0.4c0.1,1.1,0.2,2.1,0.3,3.2c3.8-0.2,7.5-0.3,11.3-0.5c0.3,0.8,0.7,1.7,1,2.5 c2.5,0.4,5,0.8,7.5,1.2"/>
    <path id="XMLID_6_" fill="none" stroke="#000000" stroke-width="3.8674" stroke-miterlimit="10" d="M1237,464.2 c3.1,0.3,6.2,0.7,9.3,1"/>
    <path id="XMLID_7_" fill="none" stroke="#000000" stroke-width="3.8674" stroke-miterlimit="10" d="M1102.4,453.3 c2.6,1.9,6.4,2,9,0.2c-0.4,3.2,2.7,5.9,5.9,6.5c3.2,0.6,6.4-0.2,9.7-0.3c3.2-0.1,6.9,0.8,8.5,3.6"/>
    <path id="XMLID_8_" fill="none" stroke="#000000" stroke-width="3.8674" stroke-miterlimit="10" d="M1154.5,462.7 c2.9,3.6,8.4,4.6,12.4,2.3c8.4,2.4,17,3.8,25.8,4"/>
    <path id="XMLID_9_" fill="none" stroke="#000000" stroke-width="3.8674" stroke-miterlimit="10" d="M1209.2,468.1 c2,0.1,4.1,0.1,6.1,0.2c0.1,1.6,0.1,3.2,0.2,4.9c7.4,0.5,14.9,1,22.3,1.5c0.3,0.8,0.6,1.7,0.8,2.5c11.1,3.6,23.4,3.1,34.1-1.5"/>
    <path id="XMLID_10_" fill="none" stroke="#000000" stroke-width="3.8674" stroke-miterlimit="10" d="M1275.2,473.3 c-0.3,1.4-0.7,2.8-1,4.1"/>
    <line id="XMLID_11_" fill="none" stroke="#000000" stroke-width="4" stroke-miterlimit="10" x1="1289" y1="477" x2="1289" y2="482"/>
    <path id="XMLID_12_" fill="none" stroke="#000000" stroke-width="4" stroke-miterlimit="10" d="M1114.5,463.5 c2.7,1.5,5.4,3.1,8.1,4.6c10.7,2.8,21.5,5.6,32.2,8.3c12.7,3.6,26.5,3.1,38.9-1.4c0.4,2.5,0.8,5,1.2,7.4c3-0.1,6-0.1,9-0.2 c7.9,1.6,15.7,3.3,23.6,4.9c16.3,3.5,32.5,7.1,48.8,10.6"/>
    <path id="XMLID_13_" fill="none" stroke="#000000" stroke-width="4" stroke-miterlimit="10" d="M1056.7,243.1 c0.2-14.1,0.4-28.3,0.6-42.4c3,12.5,5.9,25,8.9,37.5c0.7,2.9,1.5,6,3.5,8.2c6.4,6.8,18.4,0.1,26.8,4.1c-1,0-2-0.1-2.9-0.1"/>
    <path id="XMLID_58_" fill="none" stroke="#000000" stroke-width="4" stroke-miterlimit="10" d="M1056.3,247.6 c-10.6-2.2-21.2-4.4-31.7-6.6c3.2,3.6,6.4,7.3,9.5,10.9"/>
    <path id="XMLID_59_" fill="none" stroke="#000000" stroke-width="4" stroke-miterlimit="10" d="M1043.1,287.5 c-1.1,8-2.2,15.9-3.3,23.9c10-3.9,18.8-10.7,25-19.5c-0.2,8.1,4.8,16.1,12.1,19.6c1.6-10.4,3.2-20.9,4.8-31.3"/>
    <path id="XMLID_60_" fill="none" stroke="#000000" stroke-width="4" stroke-miterlimit="10" d="M1024.2,255.2 c0.7-0.6,1.4-1.3,2.1-1.9c0.1,6.3,0.2,12.7,0.4,19c2.4-4.9,3.5-10.5,3-16c2.4,5.6,4.8,11.1,7.2,16.7c2.2-5.9,4.4-11.9,6.7-17.8 c0.5,5.6,0.9,11.2,1.4,16.9c2.4-6,4.8-12,7.2-17.9c2.3,5.1,4.6,10.1,6.9,15.2c-6.3,0.2-12.6,0.4-18.9,0.6c12.9,0.4,25.8-1,38.4-4.1 c-3.2,3.5-7.2,6.2-11.7,7.8c0.7-5.5,1.4-11,2.1-16.4c-0.7,5.4,0.1,11,2.2,16.1c5.1-3.7,9.5-8.2,13-13.5c1.8,3.8,1.7,8.5-0.2,12.3 c2-3.3,4.9-6.1,8.3-7.8c2.7,2.6,4.6,5.9,5.4,9.5c1.6,0.4,3.4-0.4,4.1-1.9"/>
    <path id="XMLID_61_" fill="none" stroke="#000000" stroke-width="4" stroke-miterlimit="10" d="M1031.7,246.1 c1.8-17.7,19.3-32.3,37.1-31"/>
    <path id="XMLID_62_" fill="none" stroke="#000000" stroke-width="4" stroke-miterlimit="10" d="M1073.9,223.1 c8.8-1.6,18.2,4.3,20.7,12.8"/>
    <path id="XMLID_63_" fill="none" stroke="#000000" stroke-width="4" stroke-miterlimit="10" d="M1027.6,278.2 c-3.6,6.5,1.7,16.1,9.2,16.3"/>
    <path id="XMLID_64_" fill="none" stroke="#000000" stroke-width="4" stroke-miterlimit="10" d="M1087.4,302 c5.7-4.7,8.9-12.3,8.1-19.7"/>
    <path id="XMLID_65_" fill="none" stroke="#000000" stroke-width="4" stroke-miterlimit="10" d="M1000.6,183.8 c-2.5-0.1-3.8,3.9-1.8,5.4s5.4-0.9,4.6-3.3c-0.2,2.2-0.5,4.5-0.7,6.7"/>
    <path id="XMLID_66_" fill="none" stroke="#000000" stroke-width="4" stroke-miterlimit="10" d="M1005.6,214.7 c2.4,0.7,5.2-1.3,5.4-3.8c-2-1.4-5-1.1-6.7,0.6s-1.9,4.8-0.5,6.7"/>
    <path id="XMLID_67_" fill="none" stroke="#000000" stroke-width="4" stroke-miterlimit="10" d="M1011.8,231.7 c0-0.9,0.1-1.9,0.1-2.8c-3-1.7-6.8,3-4.6,5.6"/>
    <path id="XMLID_68_" fill="none" stroke="#000000" stroke-width="4" stroke-miterlimit="10" d="M1012.1,246.2c0.3-1.3,0.7-2.7,1-4 c-1.4,0-2.8-0.1-4.1-0.1c0,1-0.1,2.1-0.1,3.1"/>
    <path id="XMLID_69_" fill="none" stroke="#000000" stroke-width="4" stroke-miterlimit="10" d="M1013,261.7 c-0.1-1.7-0.1-3.4-0.2-5.1c-1.8,0.1-3.4,1.4-3.8,3.1"/>
    <path id="XMLID_70_" fill="none" stroke="#000000" stroke-width="4" stroke-miterlimit="10" d="M1013.5,272.8 c0.4-0.8-0.4-1.9-1.3-1.8s-1.5,1.2-1,2"/>
    <path id="XMLID_71_" fill="none" stroke="#000000" stroke-width="4" stroke-miterlimit="10" d="M1013.6,298.7c0.2-1-1.4-1.8-2.1-1 c-0.7,0.8,0.4,2.3,1.4,1.9"/>
    <path id="XMLID_72_" fill="none" stroke="#000000" stroke-width="4" stroke-miterlimit="10" d="M1017.2,320.5 c-0.7-0.7-1.4-1.4-2.1-2.1"/>
    <path id="XMLID_73_" fill="none" stroke="#000000" stroke-width="4" stroke-miterlimit="10" d="M1019,351.2c1.5-1.3-0.1-4.3-2-3.7 c-1.9,0.5-1.7,4,0.3,4.2"/>
    <path id="XMLID_74_" fill="none" stroke="#000000" stroke-width="4" stroke-miterlimit="10" d="M1020.5,369.1 c-0.4,1.4-0.8,2.7-1.2,4.1"/>
    <path id="XMLID_75_" fill="none" stroke="#000000" stroke-width="4" stroke-miterlimit="10" d="M966,425.4 c6.9,2.3,13.3,6.4,18.2,11.8c-6.7-9.3-16.6-16.3-27.6-19.3c-0.4,1-0.8,1.9-1.2,2.9c1,1.3,1.9,2.7,2.9,4"/>
    <path id="XMLID_76_" fill="none" stroke="#000000" stroke-width="4" stroke-miterlimit="10" d="M997.2,440.6 c12.6-7.1,28.9-7.2,41.7-0.4"/>
    <path id="XMLID_77_" fill="none" stroke="#000000" stroke-width="4" stroke-miterlimit="10" d="M990,431c0.1,1.5,1.9,2.6,3.2,2.1 c1.4-0.6,1.9-2.6,0.9-3.7c-1.5-1.2-3.9-1-5.1,0.5c-1.2,1.5-1,3.9,0.5,5.1"/>
    <path id="XMLID_78_" fill="none" stroke="#000000" stroke-width="4" stroke-miterlimit="10" d="M1037.8,444.4 c-3.3,2.9-5.5,7-6.2,11.4"/>
    <path id="XMLID_79_" fill="none" stroke="#000000" stroke-width="4" stroke-miterlimit="10" d="M958.3,423.7 c-4.5,5.9-7.1,13.2-7.2,20.6"/>
    <path id="XMLID_80_" fill="none" stroke="#000000" stroke-width="4" stroke-miterlimit="10" d="M1063.4,425.7 c-1.3,1.7-2.6,3.4-3.9,5.2c2.4,0.8,4.9,1.6,7.4,1c2.4-0.6,4.5-3.3,3.6-5.6c-0.9-2.3-5.4-1.9-5.2,0.6"/>
    <path id="XMLID_81_" fill="none" stroke="#000000" stroke-width="4" stroke-miterlimit="10" d="M1062.4,442.4 c1.9,7.4,0.7,15.5-3.2,22"/>
    <path id="XMLID_82_" fill="none" stroke="#000000" stroke-width="4" stroke-miterlimit="10" d="M1075.2,441.4 c-4.1,8.3-8.1,16.6-12.2,24.9"/>
    <path id="XMLID_83_" fill="none" stroke="#000000" stroke-width="4" stroke-miterlimit="10" d="M1012,331.9 c-1,20.7,0.1,41.5,3.1,61.9"/>
    <line id="XMLID_84_" fill="none" stroke="#000000" stroke-width="4" stroke-miterlimit="10" x1="1029" y1="342" x2="1029" y2="402"/>
    <path id="XMLID_85_" fill="none" stroke="#000000" stroke-width="4" stroke-miterlimit="10" d="M1035.7,403.9 c15-0.2,29.9-2,44.5-5.5"/>
    <path id="XMLID_86_" fill="none" stroke="#000000" stroke-width="4" stroke-miterlimit="10" d="M1079.1,346.3c0-4.2,0-8.3,0.1-12.5 c-2.5,16.2-1.4,32.9,3,48.6"/>
    <path id="XMLID_87_" fill="none" stroke="#000000" stroke-width="4" stroke-miterlimit="10" d="M1044.2,352.4 c-0.9,2.3,3.2,4.2,4.7,2.1c1.4-2.1-0.9-5.2-3.4-4.8s-3.9,3.4-3.2,5.8"/>
    <path id="XMLID_88_" fill="none" stroke="#000000" stroke-width="4" stroke-miterlimit="10" d="M1045.1,370.1 c1.1-0.7,2.1-1.4,3.2-2.1c-0.7-1-2.1-1.5-3.2-1"/>
    <path id="XMLID_89_" fill="none" stroke="#000000" stroke-width="4" stroke-miterlimit="10" d="M1060.6,380.4c0.3-1,0.7-2.1,1-3.1"/>
    <path id="XMLID_90_" fill="none" stroke="#000000" stroke-width="4" stroke-miterlimit="10" d="M928.7,210.1 c23.8,7.5,47.5,15,71.3,22.5"/>
    <path id="XMLID_91_" fill="none" stroke="#000000" stroke-width="4" stroke-miterlimit="10" d="M931.2,246.5 c12.8,9.1,28,14.6,43.6,16"/>
    <path id="XMLID_92_" fill="none" stroke="#000000" stroke-width="4" stroke-miterlimit="10" d="M933.6,277.2 c-1.5-1.7-2.9-3.4-4.4-5.1c12.3,3.5,24.3,7.9,35.9,13.2"/>
    <path id="XMLID_93_" fill="none" stroke="#000000" stroke-width="4" stroke-miterlimit="10" d="M915.4,305.9 c10.2,7,22.3,11.3,34.7,12.3"/>
    <path id="XMLID_94_" fill="none" stroke="#000000" stroke-width="4" stroke-miterlimit="10" d="M924.7,333.5 c6.6,6.7,16,10.6,25.4,10.6"/>
    <path id="XMLID_95_" fill="none" stroke="#000000" stroke-width="4" stroke-miterlimit="10" d="M929.4,369 c5.5,2.4,11.6,3.5,17.5,3.1"/>
    <path id="XMLID_96_" fill="none" stroke="#000000" stroke-width="4" stroke-miterlimit="10" d="M999.6,233.8 c0.4-1.6,0.7-3.3,1.1-4.9c-34.7,39.2-53.5,92-51.5,144.3"/>
    <path id="XMLID_97_" fill="none" stroke="#000000" stroke-width="4" stroke-miterlimit="10" d="M967.6,125.4 c-1.9-1.8-5.5-0.8-6.3,1.7s1.7,5.3,4.3,4.9c2.6-0.4,4-3.9,2.5-6c-2.4,1.2-3.9,4-3.5,6.6"/>
    <path id="XMLID_98_" fill="none" stroke="#000000" stroke-width="4" stroke-miterlimit="10" d="M986.3,151c3.1,1.6,7-2.6,5.4-5.5 c-1.7-3-7.3-1.7-7.5,1.7"/>
    <path id="XMLID_99_" fill="none" stroke="#000000" stroke-width="4" stroke-miterlimit="10" d="M631.4,570.6 c-3.3,5.1-6.6,10.4-7.6,16.4c-1,6,1,12.9,6.3,15.9c5.8,3.3,13.7,0.4,17.5-5.1c3.8-5.5,4-12.8,2.2-19.2c-0.9-3.2-2.3-6.4-4.7-8.7 c-2.4-2.3-6.1-3.5-9.2-2.3c-3.2,1.2-5,4.4-6.4,7.6c-3.9,9.2-5.1,19.4-3.4,29.2"/>
    <path id="XMLID_100_" fill="none" stroke="#000000" stroke-width="4" stroke-miterlimit="10" d="M627.2,611.8 c5.4,20.4,8,41.4,7.9,62.5c-0.3-3.3-0.6-6.7-0.9-10"/>
    <path id="XMLID_101_" fill="none" stroke="#000000" stroke-width="4" stroke-miterlimit="10" d="M637.8,615.6 c7.6,21.8,9.3,45.7,5,68.4c-0.2-5.5-0.3-11-0.5-16.6"/>
    <path id="XMLID_102_" fill="none" stroke="#000000" stroke-width="4" stroke-miterlimit="10" d="M647.5,651.9 c6.6,26.6,8.8,54.2,6.4,81.5"/>
    <path id="XMLID_103_" fill="none" stroke="#000000" stroke-width="4" stroke-miterlimit="10" d="M634,690.7 c0.7-0.2,1.4-0.4,2.1-0.6c3.9,9.5,3,20.9-2.3,29.7c-1.4,2.4-3.5,4.8-6.2,5.2c-2.8,0.4-5.8-2.6-4.6-5c6,0.6,11.8,2.8,16.6,6.3 c-2.2,3.1-4.4,6.2-6.5,9.2"/>
    <path id="XMLID_104_" fill="none" stroke="#000000" stroke-width="4" stroke-miterlimit="10" d="M632.4,738.6 c-3,23.3-7.4,46.3-13.1,69.1c0.5-1.4,1-2.7,1.4-4.1"/>
    <path id="XMLID_105_" fill="none" stroke="#000000" stroke-width="4" stroke-miterlimit="10" d="M640.5,763.4 c-1.9,21.5,0.5,43.4,7,64"/>
    <path id="XMLID_107_" fill="none" stroke="#000000" stroke-width="4" stroke-miterlimit="10" d="M573.1,481.9 c-1.3-0.4-2.6-0.8-3.9-1.2c11.1-10.4,29.2-11,42.6-3.7c13.4,7.3,22.2,21.2,26.4,35.8"/>
    <path id="XMLID_108_" fill="none" stroke="#000000" stroke-width="4" stroke-miterlimit="10" d="M624.6,495.4 c16,10.5,27.9,27.1,32.7,45.6"/>
    <path id="XMLID_109_" fill="none" stroke="#000000" stroke-width="4" stroke-miterlimit="10" d="M661.1,520.8 c4.8,15.2,9.5,30.3,14.3,45.5"/>
    <path id="XMLID_110_" fill="none" stroke="#000000" stroke-width="4" stroke-miterlimit="10" d="M675.9,567.2 c0.1,10.3,0.1,20.6,0.2,31"/>
    <path id="XMLID_111_" fill="none" stroke="#000000" stroke-width="4" stroke-miterlimit="10" d="M557.2,455.5 c3.3,5.2,5.3,11.3,5.8,17.4c0.8-6.2,3.9-12,8.5-16.1c1.1,5.8,2.2,11.7,3.3,17.5c1.6-2,3.2-4.1,4.8-6.1"/>
    <path id="XMLID_112_" fill="none" stroke="#000000" stroke-width="4" stroke-miterlimit="10" d="M588.8,451.6 c-0.3,5.2-0.7,10.3-1,15.5"/>
    <path id="XMLID_113_" fill="none" stroke="#000000" stroke-width="4" stroke-miterlimit="10" d="M599.1,446.5 c0,7.6,0.1,15.2,0.1,22.8c1-0.3,2-0.6,3.1-1"/>
    <path id="XMLID_114_" fill="none" stroke="#000000" stroke-width="4" stroke-miterlimit="10" d="M612.5,449.5c0,8.4,0,16.8,0,25.2 c3,0.2,6-1.8,7-4.7"/>
    <path id="XMLID_115_" fill="none" stroke="#000000" stroke-width="4" stroke-miterlimit="10" d="M626.8,459.9 c0.1,8.1,0.2,16.2,0.4,24.2c3.1-0.5,5.8-2.8,6.8-5.7"/>
    <path id="XMLID_116_" fill="none" stroke="#000000" stroke-width="4" stroke-miterlimit="10" d="M638.2,475.7c2.3,3,2.5,7.2,2.1,11 s-1.2,7.7-0.3,11.5c0.9,3.7,4,7.3,7.9,7.1"/>
    <path id="XMLID_117_" fill="none" stroke="#000000" stroke-width="4" stroke-miterlimit="10" d="M660,505.3 c1.4,13.4,2.8,26.8,4.1,40.3"/>
    <path id="XMLID_118_" fill="none" stroke="#000000" stroke-width="4" stroke-miterlimit="10" d="M574,515.9 c-4.4,0.8-7.7,5.3-7.3,9.7c0.5,4.4,4.7,8.1,9.1,7.9c3.7-0.1,7.1-2.8,8.1-6.4c0.9-3.6-0.9-7.7-4.1-9.3c-5.2-2.6-11.8,1.6-13.8,7.1 s-0.9,11.6,0.3,17.3"/>
    <path id="XMLID_119_" fill="none" stroke="#000000" stroke-width="4" stroke-miterlimit="10" d="M577.6,538.9 c-5.6,7.1-7.8,16.8-5.7,25.6c7.2-4.1,12.2-11.9,12.8-20.2c1.4,5.2,2.8,10.4,4.2,15.6c1.7-0.6,3.3-1.3,5-1.9 c-0.7,3.6,0.7,7.5,3.5,9.7c2.8,2.3,7,2.8,10.3,1.3"/>
    <path id="XMLID_120_" fill="none" stroke="#000000" stroke-width="4" stroke-miterlimit="10" d="M610.4,571.4 c-1.4,2.8-2.8,5.5-4.1,8.3"/>
    <path id="XMLID_121_" fill="none" stroke="#000000" stroke-width="4" stroke-miterlimit="10" d="M571.2,559 c-0.1,8.9-1.6,17.8-4.3,26.3c3.8-2.1,7.1-5.2,9.5-8.8"/>
    <path id="XMLID_122_" fill="none" stroke="#000000" stroke-width="4" stroke-miterlimit="10" d="M581.8,570.4 c-1.4,13.8-2.8,27.5-4.1,41.3"/>
    <path id="XMLID_123_" fill="none" stroke="#000000" stroke-width="4" stroke-miterlimit="10" d="M589.5,594.8 c-3.2,0.5-6.4,1-9.2,2.5s-5.2,4.2-5.3,7.4c-0.2,3.2,2.5,6.5,5.7,6.2c2.6-0.2,5.2-2.5,7.4-1.1c2.7,1.6,0.5,5.9-2.2,7.4 c-2.7,1.5-6.4,3-6.6,6.1c2.6,0,5.2,0.1,7.8,0.1c-5.2,2.5-8.5,8.6-7.5,14.3"/>
    <path id="XMLID_124_" fill="none" stroke="#000000" stroke-width="4" stroke-miterlimit="10" d="M580.5,631.2 c-0.5-0.9-1-1.8-1.5-2.6c-1.2,18.1-2.3,36.2-3.5,54.3"/>
    <path id="XMLID_125_" fill="none" stroke="#000000" stroke-width="4" stroke-miterlimit="10" d="M583.7,636.4 c-0.6,18.2-1.1,36.5-1.7,54.7"/>
    <path id="XMLID_126_" fill="none" stroke="#000000" stroke-width="4" stroke-miterlimit="10" d="M594.1,663.2 c-1,15.8-0.6,31.8,1.2,47.6"/>
    <path id="XMLID_127_" fill="none" stroke="#000000" stroke-width="4" stroke-miterlimit="10" d="M603.9,647.1 c6.1,6.3,12.2,12.6,18.2,19"/>
    <path id="XMLID_128_" fill="none" stroke="#000000" stroke-width="4" stroke-miterlimit="10" d="M603.6,663.5 c2.8,6.3,7.7,11.6,13.7,14.9"/>
    <path id="XMLID_129_" fill="none" stroke="#000000" stroke-width="4" stroke-miterlimit="10" d="M609,682.9 c1,5.7,1.9,11.5,2.9,17.2"/>
    <path id="XMLID_130_" fill="none" stroke="#000000" stroke-width="4" stroke-miterlimit="10" d="M609.4,702.5 c-5.4,10-6.5,22.2-3.2,33"/>
    <path id="XMLID_131_" fill="none" stroke="#000000" stroke-width="4" stroke-miterlimit="10" d="M605.3,743.8 c-1.1,4.5-2.2,9-3.2,13.5c1.2,0.9,3.1,0.8,4.2-0.2"/>
    <path id="XMLID_132_" fill="none" stroke="#000000" stroke-width="4" stroke-miterlimit="10" d="M668.4,793.3 c-2.9,27.1-2,54.7,2.8,81.6"/>
    <path id="XMLID_133_" fill="none" stroke="#000000" stroke-width="4" stroke-miterlimit="10" d="M679.4,833.6c0.3,21,0.7,42,1,63"/>
    <path id="XMLID_135_" fill="none" stroke="#000000" stroke-width="4" stroke-miterlimit="10" d="M716.9,295.7 c0.7-10.7,5.6-21,13.3-28.4s18.2-11.8,28.9-12.1"/>
    <path id="XMLID_136_" fill="none" stroke="#000000" stroke-width="4" stroke-miterlimit="10" d="M725.1,292.1 c8.6-15.2,27-24.2,44.3-21.8"/>
    <path id="XMLID_137_" fill="none" stroke="#000000" stroke-width="4" stroke-miterlimit="10" d="M730.4,308.9 c5-17,23.5-28.9,41-26.4"/>
    <path id="XMLID_138_" fill="none" stroke="#000000" stroke-width="4" stroke-miterlimit="10" d="M749.8,399.4 c9.2,0.9,18.7-2.6,25.1-9.2c6.4-6.6,9.6-16.2,8.5-25.4"/>
    <path id="XMLID_139_" fill="none" stroke="#000000" stroke-width="4" stroke-miterlimit="10" d="M759.1,420.7 c8.9,2.3,19-0.4,25.6-6.8c6.7-6.4,9.7-16.3,7.8-25.3"/>
    <path id="XMLID_140_" fill="none" stroke="#000000" stroke-width="4" stroke-miterlimit="10" d="M768.5,436.7 c14.8-3.6,27.7-14.5,33.8-28.5"/>
    <path id="XMLID_141_" fill="none" stroke="#000000" stroke-width="4" stroke-miterlimit="10" d="M513.7,259.5 c67.4-22.6,132.8-50.7,195.5-84.1"/>
    <path id="XMLID_142_" fill="none" stroke="#000000" stroke-width="4" stroke-miterlimit="10" d="M806.4,148.6 c32.5-13,65.3-25.1,98.4-36.1"/>
  </g>
</svg>